<?xml version="1.0" standalone="no"?>
<!DOCTYPE svg PUBLIC "-//W3C//DTD SVG 20010904//EN"
 "http://www.w3.org/TR/2001/REC-SVG-20010904/DTD/svg10.dtd">
<svg version="1.0" xmlns="http://www.w3.org/2000/svg"
 width="498.000000pt" height="501.000000pt" viewBox="0 0 498.000000 501.000000"
 preserveAspectRatio="xMidYMid meet">

<g transform="translate(0.000000,501.000000) scale(0.100000,-0.100000)"
fill="#000000" stroke="none">
<path d="M1752 4132 c-1 -91 -6 -141 -12 -137 -5 3 -27 36 -49 73 -73 125 -82
118 -16 -11 l65 -127 -1 -93 c-1 -50 -4 -118 -8 -151 l-6 -58 -58 86 c-33 47
-64 89 -69 93 -6 3 2 -14 19 -38 17 -24 48 -74 70 -110 l40 -66 -12 -219 c-7
-121 -13 -220 -14 -221 -4 -9 -75 -1 -122 13 -66 19 -174 76 -212 112 -28 27
-28 27 -60 8 -18 -10 -45 -25 -62 -34 -16 -9 -71 -50 -122 -90 -197 -156 -351
-375 -446 -632 -60 -161 -82 -303 -82 -530 1 -218 18 -336 74 -490 105 -287
326 -551 603 -718 204 -124 394 -189 719 -246 536 -94 1052 -146 1459 -146
763 0 1051 166 901 520 -35 85 -132 219 -236 329 -88 93 -308 290 -400 358
l-70 51 -50 321 c-44 285 -62 355 -64 255 -1 -17 -4 -33 -7 -37 -6 -6 -95 32
-104 45 -3 4 -26 -6 -50 -22 -25 -17 -50 -30 -57 -30 -6 0 -20 27 -31 60 -19
54 -124 223 -156 250 -29 23 -116 -216 -116 -318 l0 -45 -26 24 c-30 28 -137
165 -174 224 -45 70 -96 166 -217 406 -162 321 -224 417 -325 502 l-48 40 -52
-50 c-29 -27 -83 -64 -119 -82 -64 -31 -187 -60 -261 -61 -52 0 -50 24 6 103
43 62 108 171 90 152 -5 -5 -32 -43 -59 -83 -77 -115 -75 -117 -75 68 l0 163
44 76 c63 110 140 258 128 246 -6 -5 -40 -59 -77 -120 -92 -151 -91 -150 -84
-52 5 76 10 90 63 190 32 59 55 107 53 107 -2 0 -29 -42 -58 -92 l-54 -93 -3
129 -3 129 38 55 c64 92 105 158 83 132 -12 -14 -43 -49 -69 -78 l-46 -54 -6
79 c-4 65 -6 54 -7 -65z m149 -1178 c319 -60 580 -262 719 -556 73 -155 94
-250 94 -423 0 -176 -23 -274 -99 -433 -82 -170 -189 -294 -348 -401 -106 -71
-211 -114 -347 -141 -97 -19 -133 -22 -240 -17 -221 11 -387 69 -555 195 -225
168 -368 424 -394 704 -33 360 124 700 422 912 104 74 278 143 427 169 62 11
244 6 321 -9z m1406 -1016 c-2 -18 -4 -6 -4 27 0 33 2 48 4 33 2 -15 2 -42 0
-60z m708 -870 c8 -45 17 -46 83 -13 78 39 85 36 80 -34 -7 -94 -48 -165 -128
-218 -36 -24 -78 -47 -95 -52 -29 -8 -31 -6 -57 46 -54 112 -44 209 33 317
l42 59 18 -34 c10 -19 21 -51 24 -71z"/>
<path d="M1590 2949 c-249 -32 -495 -175 -649 -378 -222 -292 -262 -691 -102
-1026 38 -80 111 -185 180 -259 59 -62 190 -155 286 -202 213 -103 523 -117
753 -33 226 82 432 267 537 484 82 167 100 246 100 440 0 135 -3 173 -23 243
-64 234 -205 433 -408 574 -69 48 -101 64 -212 104 -153 56 -306 73 -462 53z
m169 -614 c87 -28 148 -69 220 -151 123 -138 145 -370 53 -549 -39 -77 -149
-177 -236 -216 -69 -30 -184 -43 -269 -31 -88 14 -148 37 -141 55 4 10 19 8
72 -10 113 -38 245 -28 357 29 58 30 163 135 193 193 50 98 63 220 37 333 -21
88 -47 133 -118 206 -94 96 -191 136 -327 136 -137 0 -233 -40 -329 -138 -74
-76 -106 -138 -122 -242 -15 -97 -17 -103 -30 -94 -25 15 17 211 58 274 27 40
111 126 153 155 108 75 285 95 429 50z m-119 -439 c0 -2 -18 -34 -41 -72 -23
-37 -46 -80 -51 -96 -13 -36 -24 -28 -33 22 l-7 40 -31 -17 c-18 -8 -72 -42
-121 -75 -65 -44 -91 -57 -100 -48 -8 8 -8 13 0 18 6 4 47 30 90 58 43 28 94
60 113 71 l33 20 -42 34 -42 34 88 6 c49 3 101 6 117 7 15 1 27 0 27 -2z"/>
<path d="M3155 3536 c-45 -20 -82 -69 -137 -180 -55 -114 -59 -146 -22 -175
36 -28 43 -26 51 9 6 33 23 41 23 11 0 -35 12 -51 36 -51 28 0 31 -8 8 -24
-12 -10 -13 -17 -4 -41 6 -17 14 -86 17 -155 5 -114 9 -134 45 -228 22 -57 42
-102 44 -99 2 2 -8 44 -22 93 -22 73 -27 112 -28 219 -1 72 -6 137 -10 147 -7
15 -3 15 55 0 61 -15 117 -11 170 12 13 6 24 -14 58 -99 l42 -105 -21 -126
c-12 -70 -24 -132 -27 -140 -4 -10 -26 -14 -82 -15 -135 -2 -132 5 -51 -138
39 -68 81 -139 94 -157 l23 -34 18 42 c11 29 20 87 25 178 4 74 18 193 30 263
l23 128 -21 47 c-60 135 -72 166 -72 178 0 7 -16 24 -35 37 l-36 24 23 15 c20
14 22 22 22 124 1 98 -2 113 -23 151 -46 80 -146 121 -216 89z"/>
</g>
</svg>
