<?xml version="1.0" standalone="no"?>
<!DOCTYPE svg PUBLIC "-//W3C//DTD SVG 20010904//EN"
 "http://www.w3.org/TR/2001/REC-SVG-20010904/DTD/svg10.dtd">
<svg version="1.0" xmlns="http://www.w3.org/2000/svg"
 width="602.000000pt" height="415.000000pt" viewBox="0 0 602.000000 415.000000"
 preserveAspectRatio="xMidYMid meet">

<g transform="translate(0.000000,415.000000) scale(0.100000,-0.100000)"
fill="#000000" stroke="none">
<path d="M1657 3450 c-55 -5 -73 -12 -97 -35 -35 -34 -80 -123 -80 -158 0 -14
-7 -28 -16 -31 -14 -5 -16 -16 -10 -71 6 -57 4 -71 -19 -115 -14 -27 -24 -50
-21 -50 2 0 20 7 41 16 26 10 61 14 114 12 l76 -3 3 42 c3 34 -1 44 -18 53
-47 25 -71 101 -54 168 6 21 8 22 30 7 33 -22 130 -45 186 -45 46 0 48 -1 48
-27 0 -16 -9 -41 -20 -58 -20 -30 -25 -86 -11 -135 5 -19 17 -28 51 -37 25 -6
57 -12 72 -12 23 -1 27 4 33 38 5 29 2 46 -10 65 -13 19 -15 36 -11 63 23 129
14 165 -58 253 -56 67 -85 75 -229 60z"/>
<path d="M2313 3310 c-67 -41 -68 -43 -71 -367 -3 -277 0 -320 24 -282 3 6 19
9 35 7 l29 -5 0 278 c0 265 1 279 19 289 13 7 350 10 1020 10 l1001 0 0 23 c0
12 3 32 6 45 l6 22 -1018 0 c-992 0 -1020 -1 -1051 -20z m1277 -5 c17 -20 5
-45 -20 -45 -11 0 -23 7 -26 15 -6 15 11 45 26 45 4 0 13 -7 20 -15z"/>
<path d="M4858 2782 l-28 -3 0 -484 c0 -426 -2 -485 -16 -499 -14 -14 -139
-16 -1230 -16 -819 0 -1222 3 -1235 10 -18 10 -19 25 -19 390 l0 379 -45 -41
-45 -41 -2 -378 -3 -379 -181 169 -181 170 13 68 c21 108 21 107 -26 83 -49
-25 -110 -26 -158 -1 -39 20 -122 102 -122 121 0 5 -7 10 -15 10 -8 0 -24 9
-34 19 -19 19 -20 19 -45 -7 -40 -42 -94 -172 -117 -279 -27 -124 -36 -396
-20 -578 25 -288 52 -514 82 -682 8 -46 8 -71 -1 -97 -9 -28 -9 -45 0 -74 18
-54 37 -70 89 -77 25 -4 67 -11 93 -17 63 -15 98 6 98 57 0 31 -6 40 -47 68
-25 17 -57 42 -71 54 l-24 23 11 147 c6 82 18 209 26 283 7 74 17 169 20 212
5 53 12 81 23 91 23 20 472 36 472 17 0 -7 -26 -55 -57 -108 -32 -54 -62 -105
-68 -114 -5 -10 -43 -72 -83 -139 -39 -67 -72 -132 -72 -144 0 -13 13 -37 29
-54 l29 -31 1681 0 1682 0 24 24 c13 13 27 35 30 48 6 24 2 32 -161 288 -12
19 -50 80 -84 135 -95 153 -130 207 -154 240 -21 30 -21 38 -26 585 l-5 555
-27 -3z m-3095 -1032 c38 -29 65 -56 60 -61 -8 -7 -148 -49 -166 -49 -5 0 -6
33 -2 73 8 93 13 111 28 99 7 -5 43 -33 80 -62z"/>
</g>
</svg>
