<?xml version="1.0" standalone="no"?>
<!DOCTYPE svg PUBLIC "-//W3C//DTD SVG 20010904//EN"
 "http://www.w3.org/TR/2001/REC-SVG-20010904/DTD/svg10.dtd">
<svg version="1.0" xmlns="http://www.w3.org/2000/svg"
 width="593.000000pt" height="421.000000pt" viewBox="0 0 593.000000 421.000000"
 preserveAspectRatio="xMidYMid meet">

<g transform="translate(0.000000,421.000000) scale(0.100000,-0.100000)"
fill="#000000" stroke="none">
<path d="M1668 3810 c-62 -33 -68 -49 -68 -188 0 -100 3 -124 15 -128 8 -4 15
-10 15 -15 0 -4 -7 -6 -15 -3 -13 5 -15 -132 -15 -1196 0 -1064 2 -1201 15
-1196 8 3 15 1 15 -4 0 -6 -7 -10 -15 -10 -13 0 -15 -34 -15 -244 l0 -245 -52
-5 c-137 -14 -300 -27 -304 -23 -2 2 15 34 39 71 46 72 161 195 240 258 57 44
53 46 -34 16 -90 -30 -214 -108 -243 -153 -10 -15 -20 -25 -22 -22 -10 9 17
382 35 489 27 153 81 371 120 477 17 47 31 87 31 90 0 19 -48 -79 -103 -211
-83 -197 -141 -377 -179 -553 -27 -125 -30 -159 -31 -312 0 -95 -3 -173 -6
-173 -67 -1 -479 -65 -490 -76 -2 -2 34 -4 80 -4 46 0 340 -4 654 -10 314 -5
795 -12 1070 -15 497 -5 1209 -16 2319 -35 319 -5 581 -8 583 -7 3 3 -103 18
-456 62 -107 14 -196 26 -198 28 -2 2 14 33 36 68 46 76 37 85 -46 40 -31 -17
-58 -29 -60 -28 -5 5 33 156 73 286 19 62 34 118 34 123 0 4 -13 2 -29 -7 -62
-31 -114 -129 -161 -295 -17 -63 -33 -121 -36 -128 -2 -9 -29 10 -74 50 -39
35 -75 64 -80 66 -5 2 7 -29 26 -68 20 -40 34 -73 32 -74 -4 -4 -440 33 -454
38 -7 3 -26 29 -42 58 -17 30 -43 61 -58 68 -24 13 -28 13 -44 -8 -10 -12 -23
-22 -29 -22 -6 0 -11 -18 -11 -40 l0 -40 -47 1 c-27 0 -66 3 -87 7 -39 7 -40
8 -51 64 -6 32 -15 61 -19 65 -4 5 -19 -5 -32 -20 -27 -32 -21 -33 -90 18 -22
16 -46 -5 -74 -64 -20 -43 -28 -51 -45 -47 -11 3 -53 6 -92 6 l-73 0 0 445 c0
245 -4 445 -8 445 -5 0 -66 -49 -136 -110 -70 -60 -140 -118 -154 -129 -27
-18 -27 -18 -49 9 -22 27 -22 28 -3 45 24 22 25 38 5 55 -10 9 -12 16 -5 25
12 14 -6 36 -25 29 -19 -7 -26 23 -9 37 8 6 24 12 37 13 14 1 22 7 22 18 0 20
22 45 31 35 4 -3 7 -17 8 -29 1 -14 8 -24 21 -27 11 -2 26 -12 33 -22 7 -11
17 -19 23 -19 5 0 54 37 109 82 l100 82 0 652 0 651 -62 12 c-386 74 -703 325
-847 671 -22 52 -42 103 -45 113 -4 14 -18 17 -80 17 -41 0 -86 4 -100 10 -32
12 -66 65 -66 103 l0 27 -107 0 c-87 -1 -115 -5 -145 -20z m47 -382 c14 -6 25
-15 25 -20 0 -5 -13 -2 -30 7 -45 23 -41 34 5 13z m125 -111 c0 -4 -11 0 -25
10 -13 10 -25 22 -25 26 0 4 11 0 25 -10 13 -10 25 -22 25 -26z m128 2 c4 -30
-22 -46 -44 -28 -15 12 -19 41 -7 53 16 16 48 1 51 -25z m-57 -82 c12 -22 12
-22 -10 -3 -11 11 -21 23 -21 28 0 14 19 -1 31 -25z m80 -122 c8 -16 6 -15
-10 4 -12 13 -21 28 -21 35 0 12 14 -5 31 -39z m59 -119 c-1 -16 -5 -12 -15
13 -19 42 -19 52 0 27 8 -11 15 -29 15 -40z m34 -98 c7 -29 8 -53 1 -46 -11
10 -23 68 -15 68 4 0 10 -10 14 -22z m26 -138 c0 -16 -2 -30 -4 -30 -2 0 -6
14 -8 30 -3 17 -1 30 4 30 4 0 8 -13 8 -30z m7 -132 c-3 -7 -5 -2 -5 12 0 14
2 19 5 13 2 -7 2 -19 0 -25z m771 -256 c107 -57 168 -145 178 -260 l7 -72
-580 0 c-513 0 -585 2 -629 17 -62 20 -126 64 -159 107 -35 45 -65 135 -65
191 l0 46 603 -3 602 -3 43 -23z m-518 -562 c11 -11 20 -29 20 -40 0 -25 -34
-60 -58 -60 -30 0 -62 29 -62 57 0 57 61 82 100 43z m-254 -37 c-10 -10 -19 5
-10 18 6 11 8 11 12 0 2 -7 1 -15 -2 -18z m-22 -107 c-3 -14 -10 -26 -15 -26
-5 0 -6 7 -4 15 3 8 7 22 10 31 9 27 17 9 9 -20z m336 -73 c67 -208 63 -342
-14 -596 -57 -184 -72 -295 -57 -396 6 -40 16 -82 22 -93 6 -11 8 -22 6 -25
-9 -9 -25 31 -37 95 -24 119 -7 227 74 492 35 112 47 229 36 331 -10 85 -43
216 -66 262 -8 15 -10 27 -5 27 6 0 24 -44 41 -97z m143 -15 c22 -26 22 -40
-4 -72 -25 -31 -61 -34 -89 -6 -28 28 -25 64 7 89 30 24 58 20 86 -11z m-527
-45 c-8 -15 -15 -22 -16 -15 0 17 20 55 27 49 2 -3 -2 -18 -11 -34z m-57 -107
c-7 -14 -16 -26 -21 -26 -5 0 -1 14 7 31 20 37 31 33 14 -5z m447 -2 c37 -55
-25 -117 -80 -80 -49 31 -24 106 35 106 20 0 34 -8 45 -26z m-523 -108 c-10
-14 -22 -26 -26 -26 -5 0 1 14 13 31 12 16 24 28 27 25 3 -2 -3 -16 -14 -30z
m681 -12 c22 -21 20 -60 -4 -84 -51 -51 -125 15 -85 76 18 28 65 33 89 8z
m-774 -89 c-13 -14 -26 -23 -28 -20 -3 3 5 16 18 30 13 14 26 23 28 20 3 -3
-5 -16 -18 -30z m-95 -75 c-10 -11 -23 -20 -29 -20 -6 1 0 10 13 20 30 26 39
26 16 0z m668 -42 c22 -26 22 -40 -4 -72 -25 -31 -61 -34 -89 -6 -28 28 -25
64 7 89 30 24 58 20 86 -11z m113 -430 c-62 -135 -78 -168 -87 -174 -16 -9
-10 97 8 133 16 35 89 113 105 113 4 0 -7 -33 -26 -72z m-273 -54 c17 -9 43
-26 55 -38 26 -23 56 -75 48 -83 -5 -5 -226 136 -226 145 0 10 91 -8 123 -24z"/>
<path d="M2780 3800 c0 -17 -7 -42 -16 -55 -15 -24 -15 -27 15 -72 43 -67 143
-150 228 -190 119 -55 116 -58 111 105 -4 150 -12 176 -62 213 -28 22 -43 24
-153 27 l-123 4 0 -32z"/>
<path d="M2710 3700 c-8 -5 -68 -10 -133 -10 l-117 0 31 -62 c117 -235 330
-396 597 -453 l32 -7 0 130 0 129 -40 12 c-112 33 -252 135 -313 227 -31 47
-34 49 -57 34z"/>
<path d="M2185 3663 c12 -52 74 -184 116 -251 112 -178 262 -311 461 -411 100
-50 267 -101 329 -101 l30 0 -3 126 -3 127 -65 17 c-257 67 -471 238 -574 458
l-30 62 -134 0 -134 0 7 -27z m606 -426 c-1 -12 -15 -9 -19 4 -3 6 1 10 8 8 6
-3 11 -8 11 -12z"/>
<path d="M3725 3585 c-16 -9 -77 -65 -135 -124 -80 -82 -136 -128 -238 -195
-73 -48 -131 -90 -128 -93 5 -5 84 27 224 93 52 24 96 44 99 44 3 0 -17 -24
-45 -53 -54 -58 -72 -102 -72 -180 0 -52 -4 -50 58 -32 12 3 22 3 22 -2 0 -4
7 -50 14 -100 11 -69 12 -117 6 -185 -5 -51 -10 -138 -10 -193 -1 -55 -5 -122
-10 -150 -5 -27 -16 -95 -25 -150 -8 -55 -24 -140 -35 -190 -11 -49 -21 -115
-23 -144 l-2 -55 95 -23 c145 -36 236 -29 415 31 170 57 221 83 218 115 -2 12
-24 77 -49 144 -26 67 -57 151 -71 187 -13 36 -34 84 -45 107 -19 37 -20 46
-8 68 13 25 8 66 -35 282 -10 51 -10 74 1 125 7 35 13 75 14 91 0 32 13 34 62
8 l37 -18 12 53 c10 44 9 81 -5 204 -24 219 -55 278 -167 322 -72 28 -136 33
-174 13z m47 -229 c48 -24 97 -41 128 -44 43 -4 50 -7 45 -23 -3 -11 -8 -28
-11 -40 -3 -11 -24 -34 -47 -50 -85 -62 -87 -124 -4 -144 32 -8 32 -7 11 -111
l-16 -82 -59 -12 c-65 -14 -195 -8 -213 10 -6 6 -18 54 -26 108 l-15 97 34 20
c53 31 74 78 66 150 -4 33 -7 71 -6 85 0 32 19 83 29 78 4 -2 42 -21 84 -42z"/>
</g>
</svg>
